<?xml version="1.0" standalone="no"?>
<!DOCTYPE svg PUBLIC "-//W3C//DTD SVG 20010904//EN"
 "http://www.w3.org/TR/2001/REC-SVG-20010904/DTD/svg10.dtd">
<svg version="1.0" xmlns="http://www.w3.org/2000/svg"
 width="700.000000pt" height="700.000000pt" viewBox="0 0 700.000000 700.000000"
 preserveAspectRatio="xMidYMid meet">
<metadata>
Created by potrace 1.11, written by Peter Selinger 2001-2013
</metadata>
<g transform="translate(0.000000,700.000000) scale(0.100000,-0.100000)"
fill="#000000" stroke="none">
<path d="M6765 6540 c-27 -6 -349 -127 -400 -151 -11 -5 -150 -59 -310 -120
-487 -187 -1079 -415 -1480 -571 -27 -11 -61 -23 -75 -28 -32 -11 -359 -137
-385 -149 -11 -5 -69 -28 -130 -51 -292 -111 -712 -272 -730 -280 -11 -6 -67
-28 -125 -49 -148 -56 -521 -200 -545 -210 -11 -5 -78 -31 -150 -59 -247 -94
-472 -181 -1085 -417 -338 -130 -673 -260 -745 -287 -71 -27 -139 -54 -150
-59 -11 -5 -92 -36 -180 -70 -88 -33 -171 -68 -185 -76 -103 -63 -116 -217
-26 -302 19 -18 224 -102 366 -151 14 -4 54 -19 90 -32 36 -14 286 -107 555
-207 270 -100 499 -187 510 -191 11 -5 47 -19 80 -31 33 -12 63 -24 67 -28 6
-5 27 -69 163 -506 58 -187 205 -661 267 -860 52 -168 82 -263 123 -395 14
-44 36 -117 50 -162 14 -45 33 -98 43 -118 39 -73 142 -115 221 -88 31 11 75
40 146 100 11 9 124 100 250 203 127 103 241 197 255 208 14 12 58 48 98 80
84 66 110 88 126 102 54 51 150 114 182 120 67 13 106 13 149 0 57 -17 42 -6
1029 -726 131 -96 249 -181 262 -189 12 -8 110 -78 216 -155 242 -177 240
-175 292 -179 62 -5 116 17 157 63 32 36 39 53 63 168 14 70 31 146 36 168 6
22 12 51 14 65 2 14 24 122 49 240 25 118 60 283 77 365 17 83 33 161 36 175
3 14 7 36 10 50 3 14 12 57 20 95 8 39 28 135 45 215 17 80 32 154 34 165 3
11 7 31 9 45 3 14 21 99 40 190 19 91 37 176 40 190 7 38 47 233 51 250 3 13
58 277 69 335 3 11 12 53 20 92 9 40 18 87 21 105 4 18 11 53 16 78 6 25 12
54 15 65 2 11 10 52 18 90 52 247 66 313 70 335 2 14 9 45 15 70 5 25 12 59
15 75 3 17 8 39 10 50 25 120 41 198 62 293 13 63 26 128 29 145 3 18 8 39 10
47 4 14 62 289 71 340 3 14 37 176 75 360 39 184 75 358 80 385 16 78 18 86
40 191 11 55 23 110 25 124 4 21 26 123 40 185 20 95 10 164 -31 213 -43 51
-123 77 -190 62z m-1281 -1272 c29 -41 32 -36 -154 -208 -63 -58 -128 -118
-145 -135 -79 -74 -268 -250 -285 -265 -10 -9 -73 -67 -140 -130 -67 -63 -129
-121 -139 -129 -18 -15 -175 -162 -435 -404 -32 -31 -147 -138 -280 -261 -59
-54 -260 -241 -286 -266 -15 -14 -53 -50 -86 -80 -33 -30 -116 -107 -184 -171
-69 -64 -138 -129 -155 -144 -83 -75 -265 -246 -310 -290 -118 -116 -164 -221
-189 -430 -12 -100 -18 -150 -22 -168 -5 -31 -35 -250 -40 -297 -9 -92 -24
-134 -53 -149 -47 -26 -98 -2 -119 54 -10 30 -79 267 -87 302 -2 10 -15 56
-29 103 -13 47 -45 157 -70 245 -25 88 -71 248 -102 355 -49 164 -58 208 -58
275 -1 96 23 155 87 218 24 24 236 161 497 321 250 154 478 294 505 311 76 48
170 106 275 170 52 32 140 86 195 120 55 34 205 127 334 206 129 79 498 307
820 506 370 228 596 362 613 362 17 1 33 -7 42 -21z"/>
</g>
</svg>
